<mxfile host="app.diagrams.net" modified="2022-04-23T04:01:54.949Z" agent="5.0 (Windows NT 10.0; Win64; x64) AppleWebKit/537.36 (KHTML, like Gecko) Chrome/100.0.4896.127 Safari/537.36" etag="jV7ga1CNjVI6nCWWQQJ1" version="17.4.6" type="github">
  <diagram id="ZIbBqKyt45ywlCO85elQ" name="第 1 页">
    <mxGraphModel dx="782" dy="436" grid="1" gridSize="10" guides="1" tooltips="1" connect="1" arrows="1" fold="1" page="1" pageScale="1" pageWidth="827" pageHeight="1169" math="0" shadow="0">
      <root>
        <mxCell id="0" />
        <mxCell id="1" parent="0" />
        <mxCell id="URTRK2LlB_Kgnaw6TR3h-3" value="&lt;font style=&quot;font-size: 18px&quot;&gt;&lt;b&gt;prediction&lt;/b&gt;&lt;/font&gt;" style="rounded=0;whiteSpace=wrap;html=1;" vertex="1" parent="1">
          <mxGeometry x="240" y="370" width="120" height="60" as="geometry" />
        </mxCell>
        <mxCell id="URTRK2LlB_Kgnaw6TR3h-4" value="&lt;div&gt;&lt;b style=&quot;font-size: 18px&quot;&gt;Efficientnet_model&lt;/b&gt;&lt;/div&gt;" style="rounded=0;whiteSpace=wrap;html=1;align=center;" vertex="1" parent="1">
          <mxGeometry x="470" y="380" width="210" height="60" as="geometry" />
        </mxCell>
        <mxCell id="URTRK2LlB_Kgnaw6TR3h-13" value="" style="group" vertex="1" connectable="0" parent="1">
          <mxGeometry x="510" y="170" width="120" height="120" as="geometry" />
        </mxCell>
        <mxCell id="URTRK2LlB_Kgnaw6TR3h-1" value="&lt;b&gt;&lt;font style=&quot;font-size: 18px&quot;&gt;UiMain&lt;/font&gt;&lt;/b&gt;" style="rounded=0;whiteSpace=wrap;html=1;" vertex="1" parent="URTRK2LlB_Kgnaw6TR3h-13">
          <mxGeometry width="120" height="30" as="geometry" />
        </mxCell>
        <mxCell id="URTRK2LlB_Kgnaw6TR3h-2" style="edgeStyle=orthogonalEdgeStyle;rounded=0;orthogonalLoop=1;jettySize=auto;html=1;exitX=0.5;exitY=1;exitDx=0;exitDy=0;" edge="1" parent="URTRK2LlB_Kgnaw6TR3h-13" source="URTRK2LlB_Kgnaw6TR3h-1" target="URTRK2LlB_Kgnaw6TR3h-1">
          <mxGeometry relative="1" as="geometry" />
        </mxCell>
        <mxCell id="URTRK2LlB_Kgnaw6TR3h-9" value="+fname" style="rounded=0;whiteSpace=wrap;html=1;fontSize=13;strokeWidth=1;" vertex="1" parent="URTRK2LlB_Kgnaw6TR3h-13">
          <mxGeometry y="30" width="120" height="30" as="geometry" />
        </mxCell>
        <mxCell id="URTRK2LlB_Kgnaw6TR3h-12" value="init()&amp;nbsp;&lt;br&gt;load Image()&amp;nbsp;" style="rounded=0;whiteSpace=wrap;html=1;fontSize=13;strokeWidth=1;" vertex="1" parent="URTRK2LlB_Kgnaw6TR3h-13">
          <mxGeometry y="60" width="120" height="60" as="geometry" />
        </mxCell>
        <mxCell id="URTRK2LlB_Kgnaw6TR3h-15" value="&lt;b&gt;&lt;font style=&quot;font-size: 18px&quot;&gt;MainWindow&lt;/font&gt;&lt;/b&gt;" style="rounded=0;whiteSpace=wrap;html=1;fontSize=13;strokeWidth=1;" vertex="1" parent="1">
          <mxGeometry x="110" y="80" width="170" height="60" as="geometry" />
        </mxCell>
        <mxCell id="URTRK2LlB_Kgnaw6TR3h-16" value="+groupbox,Imagelabel&lt;br&gt;+Infolabel,centralwidget&lt;br&gt;+filebin,menubar&lt;br&gt;+statusbar" style="rounded=0;whiteSpace=wrap;html=1;fontSize=13;strokeWidth=1;" vertex="1" parent="1">
          <mxGeometry x="110" y="140" width="170" height="90" as="geometry" />
        </mxCell>
        <mxCell id="URTRK2LlB_Kgnaw6TR3h-18" value="setupUi(mainwindow)&lt;br&gt;retranslateUi(mainwindow)" style="rounded=0;whiteSpace=wrap;html=1;fontSize=13;strokeWidth=1;" vertex="1" parent="1">
          <mxGeometry x="110" y="230" width="170" height="60" as="geometry" />
        </mxCell>
        <mxCell id="URTRK2LlB_Kgnaw6TR3h-20" value="&lt;font style=&quot;font-size: 13px&quot;&gt;+&lt;font style=&quot;font-size: 13px&quot;&gt;p&lt;/font&gt;ath_state_dict,&lt;br&gt;+class_json_path,&lt;br&gt;+model&lt;br&gt;&lt;/font&gt;" style="rounded=0;whiteSpace=wrap;html=1;fontSize=18;strokeWidth=1;" vertex="1" parent="1">
          <mxGeometry x="240" y="430" width="120" height="60" as="geometry" />
        </mxCell>
        <mxCell id="URTRK2LlB_Kgnaw6TR3h-21" value="&lt;font style=&quot;font-size: 13px&quot;&gt;transform_image()&lt;br&gt;get_prediction()&lt;br&gt;my_predict()&lt;br&gt;&lt;/font&gt;" style="rounded=0;whiteSpace=wrap;html=1;fontSize=18;strokeWidth=1;" vertex="1" parent="1">
          <mxGeometry x="240" y="490" width="120" height="60" as="geometry" />
        </mxCell>
        <mxCell id="URTRK2LlB_Kgnaw6TR3h-22" value="_efficientnet_conf()&lt;br&gt;_efficientnet()&lt;br&gt;_foward_impl()&lt;br&gt;efficientnet()&lt;br&gt;fusedMBconv()&lt;br&gt;MBconv()&lt;br&gt;MBconvconfig()" style="rounded=0;whiteSpace=wrap;html=1;fontSize=13;strokeWidth=1;" vertex="1" parent="1">
          <mxGeometry x="470" y="500" width="210" height="120" as="geometry" />
        </mxCell>
        <mxCell id="URTRK2LlB_Kgnaw6TR3h-23" value="expend_ratio,&lt;br&gt;num_layers,&lt;br&gt;block, ......" style="rounded=0;whiteSpace=wrap;html=1;fontSize=13;strokeWidth=1;" vertex="1" parent="1">
          <mxGeometry x="470" y="440" width="210" height="60" as="geometry" />
        </mxCell>
      </root>
    </mxGraphModel>
  </diagram>
</mxfile>
